<svg width="450" height="138" viewBox="0 0 450 138" fill="none" xmlns="http://www.w3.org/2000/svg">
<rect y="0.5" width="450" height="137" rx="12" fill="white"/>
<path d="M45.1875 42.2969L22.5938 104.5H13.3594L39.375 36.25H45.3281L45.1875 42.2969ZM64.125 104.5L41.4844 42.2969L41.3438 36.25H47.2969L73.4062 104.5H64.125ZM62.9531 79.2344V86.6406H24.6094V79.2344H62.9531ZM114.094 53.7812H121.969V103.422C121.969 107.891 121.062 111.703 119.25 114.859C117.438 118.016 114.906 120.406 111.656 122.031C108.438 123.688 104.719 124.516 100.5 124.516C98.75 124.516 96.6875 124.234 94.3125 123.672C91.9688 123.141 89.6562 122.219 87.375 120.906C85.125 119.625 83.2344 117.891 81.7031 115.703L86.25 110.547C88.375 113.109 90.5938 114.891 92.9062 115.891C95.25 116.891 97.5625 117.391 99.8438 117.391C102.594 117.391 104.969 116.875 106.969 115.844C108.969 114.812 110.516 113.281 111.609 111.25C112.734 109.25 113.297 106.781 113.297 103.844V64.9375L114.094 53.7812ZM79.1719 79.7031V78.7188C79.1719 74.8438 79.625 71.3281 80.5312 68.1719C81.4688 64.9844 82.7969 62.25 84.5156 59.9688C86.2656 57.6875 88.375 55.9375 90.8438 54.7188C93.3125 53.4688 96.0938 52.8438 99.1875 52.8438C102.375 52.8438 105.156 53.4062 107.531 54.5312C109.938 55.625 111.969 57.2344 113.625 59.3594C115.312 61.4531 116.641 63.9844 117.609 66.9531C118.578 69.9219 119.25 73.2812 119.625 77.0312V81.3438C119.281 85.0625 118.609 88.4062 117.609 91.375C116.641 94.3438 115.312 96.875 113.625 98.9688C111.969 101.062 109.938 102.672 107.531 103.797C105.125 104.891 102.312 105.438 99.0938 105.438C96.0625 105.438 93.3125 104.797 90.8438 103.516C88.4062 102.234 86.3125 100.438 84.5625 98.125C82.8125 95.8125 81.4688 93.0938 80.5312 89.9688C79.625 86.8125 79.1719 83.3906 79.1719 79.7031ZM87.8438 78.7188V79.7031C87.8438 82.2344 88.0938 84.6094 88.5938 86.8281C89.125 89.0469 89.9219 91 90.9844 92.6875C92.0781 94.375 93.4688 95.7031 95.1562 96.6719C96.8438 97.6094 98.8594 98.0781 101.203 98.0781C104.078 98.0781 106.453 97.4688 108.328 96.25C110.203 95.0312 111.688 93.4219 112.781 91.4219C113.906 89.4219 114.781 87.25 115.406 84.9062V73.6094C115.062 71.8906 114.531 70.2344 113.812 68.6406C113.125 67.0156 112.219 65.5781 111.094 64.3281C110 63.0469 108.641 62.0312 107.016 61.2812C105.391 60.5312 103.484 60.1562 101.297 60.1562C98.9219 60.1562 96.875 60.6562 95.1562 61.6562C93.4688 62.625 92.0781 63.9688 90.9844 65.6875C89.9219 67.375 89.125 69.3438 88.5938 71.5938C88.0938 73.8125 87.8438 76.1875 87.8438 78.7188ZM143.812 61.75V104.5H135.141V53.7812H143.578L143.812 61.75ZM159.656 53.5L159.609 61.5625C158.891 61.4062 158.203 61.3125 157.547 61.2812C156.922 61.2188 156.203 61.1875 155.391 61.1875C153.391 61.1875 151.625 61.5 150.094 62.125C148.562 62.75 147.266 63.625 146.203 64.75C145.141 65.875 144.297 67.2188 143.672 68.7812C143.078 70.3125 142.688 72 142.5 73.8438L140.062 75.25C140.062 72.1875 140.359 69.3125 140.953 66.625C141.578 63.9375 142.531 61.5625 143.812 59.5C145.094 57.4062 146.719 55.7812 148.688 54.625C150.688 53.4375 153.062 52.8438 155.812 52.8438C156.438 52.8438 157.156 52.9219 157.969 53.0781C158.781 53.2031 159.344 53.3438 159.656 53.5ZM164.438 79.7031V78.625C164.438 74.9688 164.969 71.5781 166.031 68.4531C167.094 65.2969 168.625 62.5625 170.625 60.25C172.625 57.9062 175.047 56.0938 177.891 54.8125C180.734 53.5 183.922 52.8438 187.453 52.8438C191.016 52.8438 194.219 53.5 197.062 54.8125C199.938 56.0938 202.375 57.9062 204.375 60.25C206.406 62.5625 207.953 65.2969 209.016 68.4531C210.078 71.5781 210.609 74.9688 210.609 78.625V79.7031C210.609 83.3594 210.078 86.75 209.016 89.875C207.953 93 206.406 95.7344 204.375 98.0781C202.375 100.391 199.953 102.203 197.109 103.516C194.297 104.797 191.109 105.438 187.547 105.438C183.984 105.438 180.781 104.797 177.938 103.516C175.094 102.203 172.656 100.391 170.625 98.0781C168.625 95.7344 167.094 93 166.031 89.875C164.969 86.75 164.438 83.3594 164.438 79.7031ZM173.109 78.625V79.7031C173.109 82.2344 173.406 84.625 174 86.875C174.594 89.0938 175.484 91.0625 176.672 92.7812C177.891 94.5 179.406 95.8594 181.219 96.8594C183.031 97.8281 185.141 98.3125 187.547 98.3125C189.922 98.3125 192 97.8281 193.781 96.8594C195.594 95.8594 197.094 94.5 198.281 92.7812C199.469 91.0625 200.359 89.0938 200.953 86.875C201.578 84.625 201.891 82.2344 201.891 79.7031V78.625C201.891 76.125 201.578 73.7656 200.953 71.5469C200.359 69.2969 199.453 67.3125 198.234 65.5938C197.047 63.8438 195.547 62.4688 193.734 61.4688C191.953 60.4688 189.859 59.9688 187.453 59.9688C185.078 59.9688 182.984 60.4688 181.172 61.4688C179.391 62.4688 177.891 63.8438 176.672 65.5938C175.484 67.3125 174.594 69.2969 174 71.5469C173.406 73.7656 173.109 76.125 173.109 78.625Z" fill="#11C739"/>
<path d="M226.299 105.46C224.891 105.46 223.771 105.076 222.939 104.308C222.171 103.476 221.787 102.356 221.787 100.948V49.684C221.787 45.844 222.939 42.836 225.243 40.66C227.547 38.42 230.747 37.3 234.843 37.3H251.067C260.411 37.3 267.451 39.252 272.187 43.156C276.923 47.06 279.291 52.852 279.291 60.532C279.291 67.828 276.891 73.428 272.091 77.332C267.355 81.172 260.507 83.092 251.547 83.092H230.811V100.948C230.811 102.356 230.395 103.476 229.563 104.308C228.795 105.076 227.707 105.46 226.299 105.46ZM251.547 75.796C257.499 75.796 262.075 74.612 265.275 72.244C268.475 69.812 270.075 65.908 270.075 60.532C270.075 54.964 268.507 50.932 265.371 48.436C262.235 45.876 257.627 44.596 251.547 44.596H235.611C234.139 44.596 232.955 45.076 232.059 46.036C231.227 46.996 230.811 48.276 230.811 49.876V75.796H251.547ZM311.042 105.46C305.474 105.46 300.642 104.372 296.546 102.196C292.45 100.02 289.314 97.076 287.138 93.364C285.026 89.652 283.97 85.524 283.97 80.98C283.97 76.436 285.026 72.308 287.138 68.596C289.314 64.884 292.45 61.94 296.546 59.764C300.642 57.588 305.474 56.5 311.042 56.5C316.61 56.5 321.41 57.588 325.442 59.764C329.538 61.94 332.642 64.884 334.754 68.596C336.93 72.308 338.018 76.436 338.018 80.98C338.018 85.524 336.93 89.652 334.754 93.364C332.642 97.076 329.538 100.02 325.442 102.196C321.41 104.372 316.61 105.46 311.042 105.46ZM311.042 98.068C316.546 98.068 320.93 96.564 324.194 93.556C327.458 90.548 329.09 86.356 329.09 80.98C329.09 75.604 327.458 71.412 324.194 68.404C320.93 65.396 316.546 63.892 311.042 63.892C305.538 63.892 301.122 65.396 297.794 68.404C294.53 71.412 292.898 75.604 292.898 80.98C292.898 86.356 294.53 90.548 297.794 93.556C301.122 96.564 305.538 98.068 311.042 98.068ZM369.454 105.46C364.526 105.46 360.142 104.628 356.302 102.964C352.462 101.236 349.422 98.932 347.182 96.052C346.542 95.22 346.222 94.388 346.222 93.556C346.222 92.148 346.894 91.092 348.238 90.388C348.814 90.068 349.422 89.908 350.062 89.908C351.15 89.908 352.27 90.484 353.422 91.636C355.534 93.876 357.87 95.508 360.43 96.532C362.99 97.556 365.934 98.068 369.262 98.068C372.334 98.068 374.83 97.588 376.75 96.628C378.734 95.604 379.726 94.228 379.726 92.5C379.726 91.22 379.342 90.164 378.574 89.332C377.87 88.5 376.622 87.7 374.83 86.932C373.038 86.164 370.222 85.14 366.382 83.86C359.918 81.812 355.342 79.7 352.654 77.524C350.03 75.348 348.718 72.5 348.718 68.98C348.718 65.204 350.35 62.196 353.614 59.956C356.942 57.652 361.422 56.5 367.054 56.5C371.214 56.5 375.054 57.204 378.574 58.612C382.158 59.956 384.814 61.812 386.542 64.18C387.118 64.948 387.406 65.748 387.406 66.58C387.406 67.668 386.83 68.596 385.678 69.364C384.846 69.876 384.014 70.132 383.182 70.132C381.902 70.132 380.686 69.556 379.534 68.404C377.998 66.868 376.206 65.748 374.158 65.044C372.174 64.276 369.774 63.892 366.958 63.892C363.95 63.892 361.646 64.34 360.046 65.236C358.51 66.132 357.742 67.412 357.742 69.076C357.742 70.356 358.094 71.38 358.798 72.148C359.502 72.916 360.718 73.652 362.446 74.356C364.174 75.06 367.054 76.052 371.086 77.332C375.566 78.74 379.054 80.148 381.55 81.556C384.11 82.964 385.934 84.532 387.022 86.26C388.11 87.988 388.654 90.068 388.654 92.5C388.654 96.404 386.894 99.54 383.374 101.908C379.918 104.276 375.278 105.46 369.454 105.46ZM433.135 94.036C433.967 94.74 434.383 95.54 434.383 96.436C434.383 97.204 434.031 98.132 433.327 99.22C431.983 101.14 430.095 102.676 427.663 103.828C425.231 104.916 422.639 105.46 419.887 105.46C415.343 105.46 411.759 104.18 409.135 101.62C406.575 98.996 405.295 95.412 405.295 90.868V64.66H400.495C399.023 64.66 397.871 64.34 397.039 63.7C396.271 63.06 395.887 62.164 395.887 61.012C395.887 59.924 396.271 59.06 397.039 58.42C397.871 57.78 399.023 57.46 400.495 57.46H405.295V41.716C405.295 40.308 405.679 39.22 406.447 38.452C407.279 37.62 408.399 37.204 409.807 37.204C411.215 37.204 412.271 37.588 412.975 38.356C413.743 39.124 414.127 40.244 414.127 41.716V57.46H425.935C427.407 57.46 428.527 57.78 429.295 58.42C430.127 58.996 430.543 59.86 430.543 61.012C430.543 62.164 430.127 63.06 429.295 63.7C428.527 64.34 427.407 64.66 425.935 64.66H414.127V91.636C414.127 93.684 414.671 95.284 415.759 96.436C416.847 97.524 418.383 98.068 420.367 98.068C421.775 98.068 423.023 97.844 424.111 97.396C425.199 96.884 426.287 96.052 427.375 94.9C428.591 93.684 429.711 93.076 430.735 93.076C431.631 93.076 432.431 93.396 433.135 94.036Z" fill="black"/>
</svg>
